<?xml version="1.0" standalone="no"?>
<!DOCTYPE svg PUBLIC "-//W3C//DTD SVG 20010904//EN"
 "http://www.w3.org/TR/2001/REC-SVG-20010904/DTD/svg10.dtd">
<svg version="1.0" xmlns="http://www.w3.org/2000/svg"
 width="353.000000pt" height="353.000000pt" viewBox="0 0 353.000000 353.000000"
 preserveAspectRatio="xMidYMid meet">
<metadata>
Created by potrace 1.14, written by Peter Selinger 2001-2017
</metadata>
<g transform="translate(0.000000,353.000000) scale(0.100000,-0.100000)"
fill="#000000" stroke="none">
<path d="M0 2732 l0 -798 73 -18 c85 -22 192 -51 262 -72 28 -9 118 -33 200
-55 83 -21 199 -52 259 -69 121 -34 118 -35 137 35 16 59 91 210 194 390 116
202 168 305 190 377 17 52 17 66 5 159 -16 131 -32 150 -144 179 -44 12 -104
30 -135 42 -65 24 -140 36 -232 37 -36 1 -73 7 -83 14 -16 12 -15 15 14 55 17
24 41 47 53 52 12 6 45 24 72 40 28 16 61 35 75 41 14 5 41 25 60 44 36 34 92
57 167 70 32 5 63 0 130 -20 217 -67 310 -208 329 -501 8 -126 -16 -235 -87
-396 -64 -144 -98 -248 -106 -318 l-5 -56 100 4 c115 5 229 -8 392 -44 63 -13
203 -43 310 -64 107 -22 229 -48 271 -57 82 -18 106 -15 274 33 83 23 181 29
213 12 14 -7 31 -27 38 -45 12 -28 11 -39 -9 -100 -44 -135 -99 -216 -247
-361 -85 -84 -131 -135 -123 -140 16 -10 166 -48 243 -62 36 -6 101 -22 145
-35 44 -13 150 -42 235 -64 85 -23 169 -45 185 -50 17 -5 40 -12 53 -16 l22
-6 0 1280 0 1281 -1765 0 -1765 0 0 -798z"/>
<path d="M1115 3130 c-9 -15 4 -50 19 -50 20 0 39 27 32 45 -6 17 -42 20 -51
5z"/>
<path d="M3490 422 c-19 -22 -51 -59 -70 -83 -48 -59 -193 -223 -251 -284
l-48 -50 201 -3 c110 -1 203 -1 205 1 2 2 2 107 1 232 l-3 228 -35 -41z"/>
</g>
</svg>
